<svg id="Capa_1" enable-background="new 0 0 512 512" height="512" viewBox="0 0 512 512" width="512" xmlns="http://www.w3.org/2000/svg"><g><g><path d="m150.483 255.741c-55.004 0-99.753 44.75-99.753 99.754s44.749 99.753 99.753 99.753c55.005 0 99.754-44.75 99.754-99.754s-44.749-99.753-99.754-99.753zm0 179.507c-43.976 0-79.753-35.777-79.753-79.753 0-43.977 35.777-79.754 79.753-79.754 43.977 0 79.754 35.777 79.754 79.753 0 43.977-35.777 79.754-79.754 79.754z"/><path d="m509.071 138.028-41.413-41.413 26.603-26.602c7.598-7.599 7.598-19.962 0-27.562l-30.73-30.73c-7.6-7.599-19.963-7.599-27.562 0l-69.632 69.632c-3.905 3.905-3.905 10.237 0 14.143 3.906 3.905 10.236 3.905 14.143 0l69.271-69.271 30.008 30.008-208.911 208.909c-4.238-5.621-8.89-10.99-13.956-16.056-5.064-5.064-10.431-9.715-16.051-13.952l76-76c3.905-3.905 3.905-10.237 0-14.143-3.906-3.905-10.236-3.905-14.143 0l-78.976 78.976c-22.139-12.371-47.182-18.956-73.239-18.956-82.976 0-150.483 67.507-150.483 150.484s67.507 150.483 150.484 150.483 150.483-67.507 150.483-150.484c0-26.055-6.585-51.096-18.954-73.234l80.444-80.445 41.412 41.412c3.906 3.906 10.236 3.906 14.143 0l30.353-30.352c3.905-3.905 3.905-10.237 0-14.142l-12.611-12.611 16.211-16.211 12.611 12.611c3.906 3.905 10.236 3.905 14.143 0l30.353-30.353c3.905-3.905 3.905-10.236-.001-14.141zm-358.587 347.95c-71.949 0-130.484-58.535-130.484-130.483 0-71.949 58.534-130.484 130.483-130.484 34.854 0 67.621 13.572 92.267 38.217 24.646 24.646 38.218 57.413 38.218 92.266 0 71.949-58.534 130.484-130.484 130.484zm321.163-324.668-12.611-12.611c-3.906-3.905-10.236-3.905-14.143 0l-30.353 30.353c-3.905 3.905-3.905 10.236 0 14.142l12.611 12.611-16.211 16.21-34.34-34.341 76.916-76.916 34.342 34.341z"/><circle cx="341.59" cy="120.246" r="10"/></g></g></svg>